<svg width="203" height="132" viewBox="0 0 203 132" fill="none" xmlns="http://www.w3.org/2000/svg">
<path d="M202.616 66C202.61 78.1292 199.297 90.0225 193.041 100.377C186.785 110.731 177.827 119.146 167.149 124.701C166.524 125.031 165.889 125.347 165.249 125.652C164.962 125.795 164.679 125.927 164.387 126.06C162.562 126.905 160.69 127.663 158.771 128.335C157.259 128.869 155.707 129.353 154.139 129.77C139.332 133.752 123.612 132.371 109.71 125.866C109.14 125.596 108.57 125.322 108.011 125.037C97.6018 119.779 88.7717 111.81 82.433 101.952C76.0943 92.0955 72.477 80.7081 71.9547 68.967C71.4323 57.2258 74.024 45.5568 79.462 35.1656C84.8999 24.7743 92.9868 16.0377 102.887 9.85855C112.787 3.67936 124.142 0.28168 135.778 0.0165558C147.414 -0.248568 158.909 2.62848 169.075 8.35045C179.241 14.0724 187.71 22.4318 193.607 32.5647C199.503 42.6977 202.613 54.2368 202.616 65.9898V66Z" fill="url(#paint0_linear)"/>
<path d="M111.63 106.742L104.412 95.3554C104.412 95.3554 124.409 72.0115 126.41 70.6321C126.41 70.6321 116.323 87.72 111.63 106.742Z" fill="url(#paint1_linear)"/>
<path d="M104.412 95.3554L90.8019 107.572L65.7644 95.3554L46.6095 96.4142C46.6095 96.4142 58.541 100.486 61.8981 100.318L65.2603 100.15C65.2603 100.15 85.8216 120.17 90.5498 121.697C95.2781 123.224 110.809 111.252 110.809 111.252L111.711 106.778L104.412 95.3554Z" fill="url(#paint2_linear)"/>
<path d="M141.965 67.8681C140.074 68.7928 138.04 69.385 135.952 69.6191C133.537 69.9856 129.868 68.6316 129.868 68.6316C132.64 66.4276 131.995 61.2304 131.995 61.2304L132.055 61.1999C135.014 60.9708 137.489 59.2758 139.218 57.6367C138.593 62.0856 141.965 67.8681 141.965 67.8681Z" fill="url(#paint3_linear)"/>
<path d="M141.966 51.3146V54.3688C141.178 55.5553 140.258 56.6466 139.223 57.6214C137.494 59.2656 135.019 60.9606 132.06 61.1846C130.716 61.2883 129.366 61.0884 128.109 60.5992C120.043 57.5451 125.714 41.3836 125.714 41.3836C128.275 34.807 139.869 37.9884 139.869 37.9884C141.421 39.8565 141.719 45.074 141.658 45.583C141.4 46.2982 141.061 46.9813 140.65 47.6191C140.65 47.6191 142.853 45.5219 143.609 46.9167C144.365 48.3114 141.966 51.3146 141.966 51.3146Z" fill="url(#paint4_linear)"/>
<path d="M141.966 54.379V51.3249C141.966 51.3249 144.36 48.3471 143.604 46.9422C142.848 45.5373 140.645 47.6446 140.645 47.6446C141.056 47.0068 141.395 46.3237 141.653 45.6085C141.714 45.0995 141.462 40.1772 139.864 38.0139C139.864 38.0139 128.27 34.8325 125.709 41.4091C125.709 41.4091 122.392 40.559 119.534 36.5734C114.861 30.0528 120.442 29.2536 125.971 30.5109C132.681 32.038 139.405 27.0292 147.092 32.1194C154.779 37.2096 147.889 48.7797 141.966 54.379Z" fill="#262F72"/>
<path d="M159.402 92.4591C162.849 102.823 165.405 114.82 167.149 124.701C166.524 125.032 165.889 125.347 165.249 125.653C164.962 125.795 164.679 125.927 164.387 126.06C162.562 126.905 160.69 127.663 158.771 128.335C157.259 128.87 155.707 129.353 154.139 129.771C139.333 133.752 123.613 132.371 109.71 125.866C109.14 125.597 108.571 125.322 108.011 125.037C109.019 119.809 110.219 113.665 111.625 106.747C112.136 104.24 112.672 101.63 113.233 98.9186C116.122 85.0273 120.265 77.4633 123.688 73.3656L123.723 73.3249C124.373 72.5459 125.077 71.8144 125.83 71.1361C125.851 71.1114 125.875 71.0893 125.901 71.0699C126.072 70.9172 126.243 70.7747 126.405 70.6372C128.466 68.9422 129.868 68.6317 129.868 68.6317L129.994 68.6775H130.064C131.159 69.1135 132.307 69.3994 133.477 69.5276H133.674H133.704C134.451 69.5998 135.203 69.6117 135.952 69.5632H135.997C138.078 69.4293 140.104 68.8387 141.935 67.8325C144.082 68.5497 146.105 69.6026 147.929 70.9528C153.141 74.8163 163.641 88.9825 163.641 88.9825L159.402 92.4591Z" fill="url(#paint5_linear)"/>
<path d="M178.602 111.802C178.572 113.217 177.296 116.088 175.431 119.57C172.8 121.487 170.03 123.202 167.144 124.701C166.519 125.031 165.884 125.347 165.244 125.652C164.957 125.795 164.674 125.927 164.382 126.06C162.557 126.905 160.685 127.663 158.766 128.335L163.636 112.662L151.034 99.3003L159.397 92.4591L163.636 88.9926C163.636 88.9926 178.733 106.33 178.602 111.802Z" fill="url(#paint6_linear)"/>
<path fill-rule="evenodd" clip-rule="evenodd" d="M53.0947 108.989L0.965942 106.06V78.5035L53.0947 81.4324V108.989Z" fill="#8F97B9"/>
<path fill-rule="evenodd" clip-rule="evenodd" d="M53.0947 81.4656L0.965942 78.4937L48.5968 62L100.726 64.9719L53.0947 81.4656Z" fill="#E5E8F5"/>
<path fill-rule="evenodd" clip-rule="evenodd" d="M100.735 86.8963L53.1198 108.943L53.0995 81.4657L100.721 64.8489L100.735 86.8963Z" fill="#BBC0D6"/>
<defs>
<linearGradient id="paint0_linear" x1="137.521" y1="7.16742" x2="135.241" y2="137.262" gradientUnits="userSpaceOnUse">
<stop stop-color="white" stop-opacity="0"/>
<stop offset="1" stop-color="#64B5F6" stop-opacity="0.6"/>
</linearGradient>
<linearGradient id="paint1_linear" x1="116.999" y1="68.2091" x2="113.144" y2="103.451" gradientUnits="userSpaceOnUse">
<stop stop-color="#42A5F5"/>
<stop offset="1" stop-color="#1565C0"/>
</linearGradient>
<linearGradient id="paint2_linear" x1="73.376" y1="105.322" x2="115.228" y2="110.815" gradientUnits="userSpaceOnUse">
<stop stop-color="#FFE082"/>
<stop offset="1" stop-color="#FFA726"/>
</linearGradient>
<linearGradient id="paint3_linear" x1="9412.65" y1="2544.52" x2="9415.65" y2="2315.66" gradientUnits="userSpaceOnUse">
<stop stop-color="#FFE082"/>
<stop offset="1" stop-color="#FFA726"/>
</linearGradient>
<linearGradient id="paint4_linear" x1="14972.7" y1="4075.82" x2="15764.5" y2="4075.82" gradientUnits="userSpaceOnUse">
<stop stop-color="#FFE082"/>
<stop offset="1" stop-color="#FFA726"/>
</linearGradient>
<linearGradient id="paint5_linear" x1="42886.3" y1="15103.6" x2="48785" y2="20763.5" gradientUnits="userSpaceOnUse">
<stop stop-color="#42A5F5"/>
<stop offset="1" stop-color="#1565C0"/>
</linearGradient>
<linearGradient id="paint6_linear" x1="22981.6" y1="12265.9" x2="22577.5" y2="9747.49" gradientUnits="userSpaceOnUse">
<stop stop-color="#FFE082"/>
<stop offset="1" stop-color="#FFA726"/>
</linearGradient>
</defs>
</svg>
