<svg width="168" height="129" viewBox="0 0 168 129" fill="none" xmlns="http://www.w3.org/2000/svg">
<path d="M167.313 64.4467C167.306 76.163 164.052 87.6515 157.907 97.6532C151.762 107.655 142.963 115.784 132.475 121.149C132.003 121.395 131.528 121.631 131.049 121.857L130.95 121.906L130.608 122.069C130.326 122.206 130.049 122.334 129.762 122.462C127.969 123.278 126.131 124.011 124.246 124.66C123.176 125.03 122.095 125.373 121.003 125.688L119.695 126.046C105.152 129.893 89.7104 128.558 76.0542 122.275C75.4947 122.015 74.9352 121.749 74.3856 121.474L73.3953 120.982C63.5939 115.882 55.2795 108.361 49.2525 99.1457C48.6187 98.1853 48.0147 97.2019 47.4403 96.1956C46.9287 95.3203 46.4335 94.4336 45.9549 93.5355C41.3031 84.5359 38.884 74.5627 38.8992 64.4467C38.8992 63.2536 38.9322 62.0669 38.9982 60.8868C39.9265 44.3089 47.3309 28.7445 59.6366 17.5041C71.9423 6.26377 88.1784 0.234258 104.892 0.697994C121.605 1.16173 137.477 8.08212 149.131 19.9873C160.785 31.8925 167.303 47.8431 167.298 64.4467H167.313Z" fill="url(#paint0_linear)"/>
<path d="M90.4973 62.18C90.4973 62.18 76.1384 55.4192 74.8906 46.1163C73.6429 36.8134 74.5193 27.9235 81.674 25.4355C81.674 25.4355 86.1995 11.1075 102.242 16.8653C118.284 22.623 115.754 39.9111 124.523 41.9811C133.292 44.0511 149.666 35.3334 152.79 45.9688C155.915 56.6042 145.641 55.9551 138.813 64.9827C131.985 74.0102 142.531 78.7502 140.6 84.9652C138.669 91.1802 131.376 95.4531 131.376 95.4531L90.4973 62.18Z" fill="url(#paint1_linear)"/>
<path d="M70.8355 82.5854L74.8906 93.5355H75.3313L81.674 64.9827C77.6683 68.4688 70.8355 82.5854 70.8355 82.5854Z" fill="url(#paint2_linear)"/>
<path d="M63.7154 97.6903L61.1457 98.9736C57.957 100.872 53.1938 100.331 53.1938 100.331C55.7685 103.207 70.2661 106.462 74.341 106.379L75.0936 96.1906H66.0624L63.7154 97.6903Z" fill="url(#paint3_linear)"/>
<path d="M131.049 121.842L130.95 121.892L130.608 122.054C130.326 122.192 130.049 122.319 129.762 122.447C127.969 123.263 126.131 123.996 124.246 124.645C123.176 125.016 122.095 125.358 121.003 125.673L119.695 126.032C105.152 129.878 89.7104 128.544 76.0542 122.26C75.4947 122 74.9352 121.734 74.3856 121.459L73.3953 120.967C73.534 116.748 73.7469 111.699 74.0588 106.374C74.2569 103.045 74.4995 99.6079 74.7867 96.1956C74.8609 95.3056 74.9401 94.4205 75.0194 93.5355C76.1879 80.9579 78.0595 69.2949 81.06 65.5875L81.1046 65.5383C81.4856 65.0176 82.0229 64.6303 82.6395 64.432C86.9719 63.4093 90.0269 63.0651 90.5072 62.18C90.9875 61.295 90.5072 59.5544 90.5072 59.5544L91.3687 59.4364C92.6214 59.2495 95.0526 58.8561 97.3549 58.2661C97.3694 58.2706 97.385 58.2706 97.3995 58.2661C99.4345 57.74 101.361 57.0615 102.301 56.2452L104.232 61.3441C104.232 61.3441 118.755 59.5199 124.424 65.0023C124.459 65.0279 124.49 65.0576 124.518 65.0909C124.578 65.1445 124.634 65.202 124.686 65.2629C125.024 65.6171 125.324 66.0043 125.583 66.4184C127.429 69.3686 128.737 81.2087 129.643 94.0518C129.851 97.0019 130.039 100.05 130.202 103.035C130.579 109.929 130.861 116.606 131.049 121.842Z" fill="url(#paint4_linear)"/>
<path opacity="0.15" d="M130.95 121.906L130.608 122.069C130.326 122.206 130.049 122.334 129.762 122.462C127.969 123.278 126.131 124.011 124.246 124.66C123.176 125.03 122.095 125.373 121.003 125.687C114.313 118.612 111.659 109.427 111.659 109.427L130.192 103.035L130.95 121.906Z" fill="black"/>
<path d="M124.419 64.9827C131.128 71.5222 132.589 85.2504 131.351 95.4678C130.113 105.685 127.816 115.254 123.043 114.959C118.269 114.664 101.752 103.286 95.3694 97.0806L99.0978 89.9756L112.585 95.5563V80.6825L124.419 64.9827Z" fill="url(#paint5_linear)"/>
<path d="M124.419 64.9827C131.128 71.5222 132.589 85.2504 131.351 95.4678C130.113 105.685 127.816 115.254 123.043 114.959C118.269 114.664 101.752 103.286 95.3694 97.0806L99.0978 89.9756L112.585 95.5563V80.6825L124.419 64.9827Z" fill="url(#paint6_linear)"/>
<g filter="url(#filter0_d)">
<path d="M89.7199 93.5355H27.8329V96.1955H89.7199V93.5355Z" fill="url(#paint7_linear)"/>
<path d="M62.7945 60.8868H15.7318L27.8329 93.5355H74.8906L62.7945 60.8868Z" fill="url(#paint8_linear)"/>
</g>
<path d="M41.9641 96.1955C41.9641 96.1955 50.0843 100.232 55.2436 100.331C60.403 100.429 66.0673 96.1955 66.0673 96.1955H41.9641Z" fill="url(#paint9_linear)"/>
<path d="M99.0978 89.9755C99.0978 89.9755 91.958 86.396 88.8832 86.0026C85.8084 85.6093 76.2622 93.5354 76.2622 93.5354H89.7299L95.3843 97.0806L99.0978 89.9755Z" fill="url(#paint10_linear)"/>
<path d="M101.697 48.1814C101.733 50.8738 101.931 53.5617 102.291 56.2304C99.0978 58.0153 95.3596 58.9741 91.3589 59.4412L91.1262 56.2304L90.9875 54.2637V54.1997C90.2163 54.1825 89.456 54.0155 88.7495 53.708C83.917 51.638 82.8772 41.5189 82.8772 41.5189C84.8132 41.4402 87.3334 37.9738 87.3334 37.9738C88.7446 40.1176 95.2903 44.2576 99.0879 43.1464C102.886 42.0352 102.589 39.3751 102.589 39.3751C103.275 39.6627 103.87 40.1322 104.306 40.7322C104.743 41.3322 105.005 42.0397 105.064 42.7776C105.267 45.3738 101.697 48.1814 101.697 48.1814Z" fill="url(#paint11_linear)"/>
<path opacity="0.15" d="M98.4541 51.0381C97.5579 52.5427 93.5028 54.9372 91.1311 56.2402L90.9924 54.2734C91.141 54.2734 91.2846 54.2243 91.4232 54.1948C93.3594 53.8545 95.2179 53.1699 96.9093 52.1739C96.9295 52.166 96.948 52.1543 96.9638 52.1395C97.472 51.8411 97.9482 51.4918 98.3848 51.0971L98.4541 51.0381Z" fill="black"/>
<path opacity="0.15" d="M107.02 93.2601L117.527 97.528L112.575 93.9829V80.7071C112.575 80.7071 111.026 92.2423 107.02 93.2601Z" fill="black"/>
<defs>
<filter id="filter0_d" x="0.731812" y="45.8868" width="113.988" height="75.3087" filterUnits="userSpaceOnUse" color-interpolation-filters="sRGB">
<feFlood flood-opacity="0" result="BackgroundImageFix"/>
<feColorMatrix in="SourceAlpha" type="matrix" values="0 0 0 0 0 0 0 0 0 0 0 0 0 0 0 0 0 0 127 0" result="hardAlpha"/>
<feOffset dx="5" dy="5"/>
<feGaussianBlur stdDeviation="10"/>
<feColorMatrix type="matrix" values="0 0 0 0 0 0 0 0 0 0 0 0 0 0 0 0 0 0 0.2 0"/>
<feBlend mode="normal" in2="BackgroundImageFix" result="effect1_dropShadow"/>
<feBlend mode="normal" in="SourceGraphic" in2="effect1_dropShadow" result="shape"/>
</filter>
<linearGradient id="paint0_linear" x1="103.369" y1="7.59786" x2="101.203" y2="133.285" gradientUnits="userSpaceOnUse">
<stop stop-color="white" stop-opacity="0"/>
<stop offset="1" stop-color="#64B5F6" stop-opacity="0.6"/>
</linearGradient>
<linearGradient id="paint1_linear" x1="74.4202" y1="55.4732" x2="153.375" y2="55.4732" gradientUnits="userSpaceOnUse">
<stop stop-color="#EF9A9A"/>
<stop offset="1" stop-color="#D81B60"/>
</linearGradient>
<linearGradient id="paint2_linear" x1="75.668" y1="80.3924" x2="73.3191" y2="107.286" gradientUnits="userSpaceOnUse">
<stop stop-color="#7E57C2"/>
<stop offset="1" stop-color="#4527A0"/>
</linearGradient>
<linearGradient id="paint3_linear" x1="6621.18" y1="2459.75" x2="6598.24" y2="3020.39" gradientUnits="userSpaceOnUse">
<stop stop-color="#7E57C2"/>
<stop offset="1" stop-color="#4527A0"/>
</linearGradient>
<linearGradient id="paint4_linear" x1="19766.1" y1="14461.6" x2="23787.3" y2="21887.1" gradientUnits="userSpaceOnUse">
<stop stop-color="#7E57C2"/>
<stop offset="1" stop-color="#4527A0"/>
</linearGradient>
<linearGradient id="paint5_linear" x1="13566.1" y1="9509.71" x2="17135.4" y2="15495.7" gradientUnits="userSpaceOnUse">
<stop stop-color="#7E57C2"/>
<stop offset="1" stop-color="#4527A0"/>
</linearGradient>
<linearGradient id="paint6_linear" x1="116.551" y1="70.529" x2="110.974" y2="116.335" gradientUnits="userSpaceOnUse">
<stop offset="0.14" stop-color="#7E57C2" stop-opacity="0"/>
<stop offset="0.26" stop-color="#724DBB" stop-opacity="0.21"/>
<stop offset="0.48" stop-color="#5F3DAF" stop-opacity="0.55"/>
<stop offset="0.66" stop-color="#5131A7" stop-opacity="0.79"/>
<stop offset="0.81" stop-color="#482AA2" stop-opacity="0.94"/>
<stop offset="0.91" stop-color="#4527A0"/>
</linearGradient>
<linearGradient id="paint7_linear" x1="27.8329" y1="94.863" x2="89.7199" y2="94.863" gradientUnits="userSpaceOnUse">
<stop stop-color="#D2D4D5"/>
<stop offset="1" stop-color="#AAACAE"/>
</linearGradient>
<linearGradient id="paint8_linear" x1="523.906" y1="4086.46" x2="4032.64" y2="8103.64" gradientUnits="userSpaceOnUse">
<stop stop-color="#D2D4D5"/>
<stop offset="1" stop-color="#AAACAE"/>
</linearGradient>
<linearGradient id="paint9_linear" x1="43.499" y1="91.7555" x2="63.2416" y2="100.278" gradientUnits="userSpaceOnUse">
<stop stop-color="#FFF8E1"/>
<stop offset="1" stop-color="#FFCC80"/>
</linearGradient>
<linearGradient id="paint10_linear" x1="7653.13" y1="2863" x2="8157.62" y2="3415.23" gradientUnits="userSpaceOnUse">
<stop stop-color="#FFF8E1"/>
<stop offset="1" stop-color="#FFCC80"/>
</linearGradient>
<linearGradient id="paint11_linear" x1="7817.74" y1="3140.88" x2="8260.98" y2="3978.75" gradientUnits="userSpaceOnUse">
<stop stop-color="#FFF8E1"/>
<stop offset="1" stop-color="#FFCC80"/>
</linearGradient>
</defs>
</svg>
