<svg width="248" height="202" viewBox="0 0 248 202" fill="none" xmlns="http://www.w3.org/2000/svg">
<path d="M183.569 132.409C183.577 141.347 181.707 150.189 178.081 158.366C174.454 166.544 169.15 173.877 162.508 179.897C160.661 181.573 158.719 183.143 156.691 184.598C154.089 186.466 151.35 188.137 148.496 189.597H148.466C147.858 189.914 147.24 190.217 146.617 190.509C146.333 190.648 146.054 190.777 145.765 190.906C143.96 191.729 142.109 192.468 140.212 193.123C138.716 193.619 137.181 194.115 135.631 194.521C126.688 196.888 117.341 197.326 108.214 195.806C107.133 195.627 106.066 195.424 105.004 195.191L104.107 194.987C101.398 194.358 98.7342 193.553 96.1313 192.577C94.6192 192.012 93.1371 191.392 91.6849 190.718C91.1216 190.455 90.5583 190.187 90.005 189.909C89.6262 189.721 89.2523 189.528 88.8785 189.334C78.7359 184.035 70.1912 176.149 64.1194 166.485C58.0476 156.82 54.6668 145.724 54.3233 134.332C53.9797 122.94 56.6857 111.662 62.1642 101.652C67.6427 91.6429 75.6968 83.2619 85.5018 77.3675C95.3068 71.473 106.51 68.277 117.965 68.1066C129.42 67.9362 140.715 70.7975 150.692 76.3977C160.67 81.9979 168.973 90.1356 174.749 99.9776C180.526 109.82 183.57 121.012 183.569 132.409Z" fill="url(#paint0_linear)"/>
<path d="M135.87 137.061C139.987 141.276 151.98 157.681 151.98 157.681L144.613 168.427L137.988 147.078L135.87 137.061Z" fill="url(#paint1_linear)"/>
<path d="M148.466 189.632C147.858 189.949 147.24 190.252 146.617 190.544C146.333 190.683 146.054 190.812 145.764 190.941C143.96 191.764 142.109 192.503 140.211 193.158C138.716 193.654 137.181 194.149 135.63 194.556C126.688 196.922 117.341 197.36 108.214 195.84C107.133 195.662 106.066 195.459 105.004 195.226C101.116 197.894 97.5269 200.15 95.1492 201.176L95.3436 199.525L96.1511 192.617L98.0204 176.545L105.428 169.419L88.7737 170.703C88.7737 170.703 90.5233 146.552 97.3524 141.583C104.182 136.615 111.345 132.161 111.345 132.161C112.199 132.722 113.141 133.139 114.131 133.396C116.5 134.047 118.962 134.297 121.414 134.135C124.335 134.001 127.256 131.298 127.396 131.16C127.396 131.16 131.982 132.067 135.87 137.081C137.809 139.662 139.201 142.607 139.962 145.739C140.919 149.404 142.619 157.963 144.553 168.303C145.819 174.958 147.15 182.337 148.466 189.632Z" fill="url(#paint2_linear)"/>
<path d="M151.98 157.7L159.089 165.987L184.087 141.301L185.034 136.248L190.019 131.938L187.801 138.509V147.068C187.801 147.068 168.52 178.161 163.206 179.763C156.99 181.643 144.623 168.417 144.623 168.417L151.98 157.7Z" fill="url(#paint3_linear)"/>
<path d="M126.03 169.032L131.827 182.917L139.319 179.714L133.826 166.126L126.03 169.032Z" fill="#7E57C2"/>
<path d="M134.105 178.003C133.173 178.766 131.782 178.588 130.058 178.677C127.74 178.738 125.518 179.605 123.777 181.127C121.459 183.066 114.979 188.139 108.498 192.771C107.322 193.609 106.146 194.437 105.009 195.25C101.121 197.918 97.532 200.175 95.1542 201.201C94.5291 201.51 93.8541 201.706 93.1603 201.781C89.8305 201.866 89.1177 194.923 88.9133 189.384C88.8485 187.544 88.8336 185.863 88.7987 184.648C88.6591 179.788 88.7987 170.763 88.7987 170.763L105.453 169.473L103.688 180.948L103.379 182.977V182.991L108.364 181.157L108.518 181.102L126.214 174.561L127.436 172.463L128.213 174.447H128.288L135.865 173.455C135.865 173.455 135.994 176.46 134.105 178.003Z" fill="url(#paint4_linear)"/>
<path d="M130.282 105.63C129.848 104.45 129.474 103.647 129.365 103.409V103.349C129.365 103.349 128.981 104.291 126.09 104.063C123.198 103.835 122.241 102.407 122.241 102.407C122.241 102.407 123.149 105.501 119.704 106.825C116.389 108.105 115.083 107.277 114.994 107.217C115.168 107.406 117.76 110.163 116.04 112.35C114.261 114.616 110.258 114.17 110.258 114.17V114.2C110.762 115.335 111.326 116.442 111.948 117.517C112.277 118.083 112.601 118.603 112.945 119.089V119.124C113.828 120.553 115.02 121.767 116.434 122.68C115.812 126.309 114.027 129.64 111.345 132.176C112.247 132.645 113.178 133.057 114.131 133.411C115.991 134.11 118.488 134.804 120.716 134.611C123.298 134.336 125.684 133.113 127.406 131.179L126.264 126.82L125.237 122.893C134.519 120.537 131.967 110.292 130.282 105.63ZM124.719 123.037L124.883 122.997L125.148 122.923C124.763 123.088 124.357 123.198 123.941 123.25C124.156 123.195 124.375 123.136 124.604 123.066L124.719 123.037Z" fill="url(#paint5_linear)"/>
<path d="M135.87 103.22C132.041 106.721 130.386 105.734 130.282 105.64V105.63C129.848 104.45 129.474 103.647 129.37 103.409L129.345 103.349C129.345 103.349 128.956 104.291 126.065 104.063C123.174 103.835 122.221 102.407 122.221 102.407C122.221 102.407 123.129 105.501 119.684 106.825C116.364 108.105 115.058 107.277 114.974 107.217C115.148 107.401 117.74 110.158 116.02 112.345C114.241 114.611 110.238 114.17 110.238 114.17V114.195C110.742 115.331 111.306 116.44 111.928 117.517C112.26 118.079 112.593 118.603 112.925 119.089V119.124C112.925 119.124 111.559 121.797 109.121 121.742C106.684 121.688 106.629 119.263 106.629 119.263C106.629 119.263 104.904 122.357 99.5757 119.377C94.247 116.396 97.8011 112.077 97.8011 112.077C97.8011 112.077 94.0226 109.201 94.0226 104.891C94.0226 100.582 99.9047 97.304 99.9047 97.304C99.9047 97.304 97.8011 92.3004 101.35 89.5431C104.899 86.7859 110.233 88.6554 110.233 88.6554C110.233 88.6554 110.128 82.2533 115.562 82.3575C120.995 82.4616 122.226 85.7693 122.226 85.7693C122.226 85.7693 127.111 82.0103 131.947 85.5511C136.782 89.0919 134.793 95.2659 134.793 95.2659C134.793 95.2659 139.862 99.5753 135.87 103.22Z" fill="url(#paint6_linear)"/>
<path opacity="0.15" d="M126.304 126.805C123.986 126.076 119.864 123.294 119.864 123.294C121.491 123.466 123.134 123.378 124.734 123.037L124.898 122.997L125.217 122.903H125.262L126.304 126.805Z" fill="black"/>
<path opacity="0.15" d="M107.676 154.586L105.428 169.463L103.663 180.938L99.5557 184.335L108.493 181.107C108.493 181.107 106.175 174.521 107.676 154.586Z" fill="black"/>
<path opacity="0.15" d="M104.994 195.226C106.056 195.459 107.123 195.662 108.204 195.84C108.259 194.824 108.359 193.797 108.498 192.771L104.994 195.226Z" fill="black"/>
<g filter="url(#filter0_d)">
<path d="M83.3902 10H56.7367C53.0587 10 50.0771 12.9662 50.0771 16.6253V43.1413C50.0771 46.8004 53.0587 49.7666 56.7367 49.7666H83.3902C87.0683 49.7666 90.0499 46.8004 90.0499 43.1413V16.6253C90.0499 12.9662 87.0683 10 83.3902 10Z" fill="#56CCF2"/>
</g>
<rect x="59.6595" y="30.3402" width="21.4781" height="11.4215" rx="4.4" fill="white"/>
<path d="M64.0286 30.3403C64.0286 30.3403 63.0781 17.7866 70.3945 17.7866C77.711 17.7866 77.1838 30.3523 77.1838 30.3523" stroke="white" stroke-width="1.9"/>
<g filter="url(#filter1_d)">
<path d="M221.233 110.253H194.58C190.902 110.253 187.92 113.22 187.92 116.879V143.395C187.92 147.054 190.902 150.02 194.58 150.02H221.233C224.911 150.02 227.893 147.054 227.893 143.395V116.879C227.893 113.22 224.911 110.253 221.233 110.253Z" fill="#F2C94C"/>
</g>
<path d="M220.167 130.37L222.839 121.273C223.16 120.558 223.101 119.725 222.682 119.063C222.262 118.401 221.54 118.001 220.764 118H218.274L217.445 119.851C216.837 121.18 215.524 122.03 214.079 122.03C212.635 122.03 211.322 121.18 210.714 119.851L209.884 118H207.872C206.995 118 206.178 118.452 205.704 119.2C205.229 119.948 205.163 120.89 205.527 121.698L208.017 130.37L204.283 142.572C203.903 143.843 204.137 145.221 204.914 146.289C205.691 147.358 206.919 147.992 208.229 148H219.984C221.292 147.991 222.52 147.356 223.296 146.288C224.072 145.219 224.305 143.842 223.926 142.572L220.167 130.37Z" fill="white"/>
<g filter="url(#filter2_d)">
<path d="M43.4174 110.253H16.7639C13.0859 110.253 10.1042 113.22 10.1042 116.879V143.395C10.1042 147.054 13.0859 150.02 16.7639 150.02H43.4174C47.0954 150.02 50.077 147.054 50.077 143.395V116.879C50.077 113.22 47.0954 110.253 43.4174 110.253Z" fill="#F58A8A"/>
</g>
<g clip-path="url(#clip0)">
<path d="M39.4167 135.625C37.6735 135.627 35.9667 136.124 34.495 137.058C33.0233 137.992 31.8474 139.325 31.1042 140.902C30.3611 139.325 29.1852 137.992 27.7135 137.058C26.2418 136.124 24.535 135.627 22.7917 135.625H17.9792V136.5C17.9792 141.566 22.1007 145.688 27.1667 145.688H35.0417C40.1078 145.688 44.2292 141.566 44.2292 136.5V135.625H39.4167ZM27.1667 143.938C23.3615 143.938 20.2147 141.065 19.7804 137.375H22.7917C26.597 137.375 29.7438 140.247 30.1781 143.938H27.1667ZM35.0417 143.938H32.0304C32.4647 140.247 35.6115 137.375 39.4167 137.375H42.4281C41.9938 141.065 38.847 143.938 35.0417 143.938Z" fill="white"/>
<path d="M26.3589 133.37C26.5243 134.354 26.9938 135.262 27.7013 135.966L27.9576 136.222H28.32C29.3178 136.225 30.2914 135.915 31.1042 135.336C31.917 135.915 32.8907 136.225 33.8885 136.222H34.2509L34.5072 135.966C35.2147 135.262 35.6842 134.355 35.8496 133.371C36.8336 133.205 37.7411 132.736 38.4447 132.028L38.701 131.772V131.41C38.7038 130.412 38.3941 129.438 37.8153 128.625C38.3941 127.812 38.7039 126.839 38.7012 125.841V125.478L38.445 125.222C37.7413 124.515 36.8339 124.045 35.8499 123.88C35.6844 122.896 35.2149 121.988 34.5075 121.285L34.2511 121.028H33.8887C32.8908 121.025 31.9171 121.335 31.1042 121.914C30.2915 121.335 29.3178 121.025 28.32 121.028H27.9576L27.7013 121.284C26.9938 121.988 26.5243 122.895 26.3589 123.879C25.3749 124.045 24.4674 124.514 23.7638 125.222L23.5075 125.478V125.841C23.5047 126.838 23.8144 127.812 24.3932 128.625C23.8144 129.438 23.5046 130.411 23.5073 131.409V131.772L23.7635 132.028C24.4672 132.736 25.3748 133.205 26.3589 133.37ZM26.1545 128.006C25.6693 127.524 25.361 126.892 25.2795 126.213C25.8175 125.79 26.4824 125.561 27.1667 125.563H28.0417V124.688C28.0398 124.003 28.2688 123.338 28.6917 122.801C29.371 122.882 30.003 123.19 30.4854 123.676L31.1042 124.294L31.7229 123.675C32.2053 123.19 32.8373 122.882 33.5167 122.8C33.9397 123.338 34.1688 124.003 34.1667 124.688V125.563H35.0417C35.726 125.561 36.3909 125.79 36.9288 126.212C36.8474 126.892 36.5391 127.524 36.0538 128.006L35.4355 128.625L36.0542 129.244C36.5395 129.726 36.8478 130.358 36.9292 131.038C36.3912 131.461 35.7262 131.69 35.0417 131.688H34.1667V132.563C34.1687 133.247 33.9397 133.912 33.5168 134.45C32.8375 134.368 32.2055 134.06 31.7231 133.575L31.1042 132.956L30.4855 133.575C30.0032 134.06 29.3711 134.368 28.6918 134.45C28.2688 133.912 28.0398 133.247 28.0417 132.563V131.688H27.1667C26.4825 131.69 25.8176 131.461 25.2797 131.038C25.3611 130.358 25.6694 129.726 26.1547 129.244L26.773 128.625L26.1545 128.006Z" fill="white"/>
</g>
<g filter="url(#filter3_d)">
<path d="M177.508 10H150.855C147.177 10 144.195 12.9662 144.195 16.6253V43.1413C144.195 46.8004 147.177 49.7666 150.855 49.7666H177.508C181.186 49.7666 184.168 46.8004 184.168 43.1413V16.6253C184.168 12.9662 181.186 10 177.508 10Z" fill="#6FCF97"/>
</g>
<path d="M170.549 15.84C166.357 17.1505 161.868 17.1505 157.676 15.84C157.211 16.935 155.855 20.3772 155.855 23.5989C155.855 28.0277 157.278 40.4173 157.278 40.4173C157.278 40.4173 160.204 43.0335 164.114 43.0933C168.02 43.026 170.947 40.4098 170.947 40.4098C170.947 40.4098 172.374 28.0128 172.374 23.5914C172.374 20.3772 171.014 16.935 170.549 15.84Z" fill="white"/>
<defs>
<filter id="filter0_d" x="40.0771" y="0" width="69.9728" height="69.7666" filterUnits="userSpaceOnUse" color-interpolation-filters="sRGB">
<feFlood flood-opacity="0" result="BackgroundImageFix"/>
<feColorMatrix in="SourceAlpha" type="matrix" values="0 0 0 0 0 0 0 0 0 0 0 0 0 0 0 0 0 0 127 0" result="hardAlpha"/>
<feOffset dx="5" dy="5"/>
<feGaussianBlur stdDeviation="7.5"/>
<feColorMatrix type="matrix" values="0 0 0 0 0 0 0 0 0 0 0 0 0 0 0 0 0 0 0.15 0"/>
<feBlend mode="normal" in2="BackgroundImageFix" result="effect1_dropShadow"/>
<feBlend mode="normal" in="SourceGraphic" in2="effect1_dropShadow" result="shape"/>
</filter>
<filter id="filter1_d" x="177.92" y="100.253" width="69.9728" height="69.7666" filterUnits="userSpaceOnUse" color-interpolation-filters="sRGB">
<feFlood flood-opacity="0" result="BackgroundImageFix"/>
<feColorMatrix in="SourceAlpha" type="matrix" values="0 0 0 0 0 0 0 0 0 0 0 0 0 0 0 0 0 0 127 0" result="hardAlpha"/>
<feOffset dx="5" dy="5"/>
<feGaussianBlur stdDeviation="7.5"/>
<feColorMatrix type="matrix" values="0 0 0 0 0 0 0 0 0 0 0 0 0 0 0 0 0 0 0.15 0"/>
<feBlend mode="normal" in2="BackgroundImageFix" result="effect1_dropShadow"/>
<feBlend mode="normal" in="SourceGraphic" in2="effect1_dropShadow" result="shape"/>
</filter>
<filter id="filter2_d" x="0.104248" y="100.253" width="69.9728" height="69.7666" filterUnits="userSpaceOnUse" color-interpolation-filters="sRGB">
<feFlood flood-opacity="0" result="BackgroundImageFix"/>
<feColorMatrix in="SourceAlpha" type="matrix" values="0 0 0 0 0 0 0 0 0 0 0 0 0 0 0 0 0 0 127 0" result="hardAlpha"/>
<feOffset dx="5" dy="5"/>
<feGaussianBlur stdDeviation="7.5"/>
<feColorMatrix type="matrix" values="0 0 0 0 0 0 0 0 0 0 0 0 0 0 0 0 0 0 0.15 0"/>
<feBlend mode="normal" in2="BackgroundImageFix" result="effect1_dropShadow"/>
<feBlend mode="normal" in="SourceGraphic" in2="effect1_dropShadow" result="shape"/>
</filter>
<filter id="filter3_d" x="134.195" y="0" width="69.9728" height="69.7666" filterUnits="userSpaceOnUse" color-interpolation-filters="sRGB">
<feFlood flood-opacity="0" result="BackgroundImageFix"/>
<feColorMatrix in="SourceAlpha" type="matrix" values="0 0 0 0 0 0 0 0 0 0 0 0 0 0 0 0 0 0 127 0" result="hardAlpha"/>
<feOffset dx="5" dy="5"/>
<feGaussianBlur stdDeviation="7.5"/>
<feColorMatrix type="matrix" values="0 0 0 0 0 0 0 0 0 0 0 0 0 0 0 0 0 0 0.15 0"/>
<feBlend mode="normal" in2="BackgroundImageFix" result="effect1_dropShadow"/>
<feBlend mode="normal" in="SourceGraphic" in2="effect1_dropShadow" result="shape"/>
</filter>
<linearGradient id="paint0_linear" x1="119.197" y1="75.082" x2="117.009" y2="201.82" gradientUnits="userSpaceOnUse">
<stop stop-color="white" stop-opacity="0"/>
<stop offset="1" stop-color="#64B5F6" stop-opacity="0.6"/>
</linearGradient>
<linearGradient id="paint1_linear" x1="130.99" y1="132.801" x2="148.671" y2="164.032" gradientUnits="userSpaceOnUse">
<stop stop-color="#E57373"/>
<stop offset="1" stop-color="#AD1457"/>
</linearGradient>
<linearGradient id="paint2_linear" x1="27344.4" y1="38733.6" x2="25480.5" y2="47980.4" gradientUnits="userSpaceOnUse">
<stop stop-color="#E57373"/>
<stop offset="1" stop-color="#AD1457"/>
</linearGradient>
<linearGradient id="paint3_linear" x1="196.783" y1="144.261" x2="148.612" y2="172.313" gradientUnits="userSpaceOnUse">
<stop stop-color="#FFF8E1"/>
<stop offset="1" stop-color="#FFCC80"/>
</linearGradient>
<linearGradient id="paint4_linear" x1="21039.4" y1="21724.7" x2="18441.6" y2="19963.9" gradientUnits="userSpaceOnUse">
<stop stop-color="#FFF8E1"/>
<stop offset="1" stop-color="#FFCC80"/>
</linearGradient>
<linearGradient id="paint5_linear" x1="135.162" y1="110.68" x2="108.873" y2="121.563" gradientUnits="userSpaceOnUse">
<stop stop-color="#FFF8E1"/>
<stop offset="1" stop-color="#FFCC80"/>
</linearGradient>
<linearGradient id="paint6_linear" x1="129.12" y1="82.169" x2="98.5101" y2="123.743" gradientUnits="userSpaceOnUse">
<stop stop-color="#FFB74D"/>
<stop offset="1" stop-color="#F4511E"/>
</linearGradient>
<clipPath id="clip0">
<rect width="28" height="28" fill="white" transform="translate(17.1042 119)"/>
</clipPath>
</defs>
</svg>
