<svg width="126" height="126" viewBox="0 0 126 126" fill="none" xmlns="http://www.w3.org/2000/svg">
<path d="M77.847 77.847C73.9089 81.7839 68.5684 83.9955 63 83.9955C57.4316 83.9955 52.0911 81.7839 48.153 77.847H77.847ZM47.25 52.5H47.3025H47.25ZM78.75 52.5H78.8025H78.75ZM110.25 63C110.25 69.205 109.028 75.3492 106.653 81.0818C104.279 86.8144 100.798 92.0232 96.4108 96.4108C92.0232 100.798 86.8144 104.279 81.0818 106.653C75.3492 109.028 69.205 110.25 63 110.25C56.795 110.25 50.6508 109.028 44.9182 106.653C39.1856 104.279 33.9768 100.798 29.5892 96.4108C25.2016 92.0232 21.7212 86.8144 19.3467 81.0818C16.9722 75.3492 15.75 69.205 15.75 63C15.75 50.4685 20.7281 38.4503 29.5892 29.5892C38.4503 20.7281 50.4685 15.75 63 15.75C75.5315 15.75 87.5497 20.7281 96.4108 29.5892C105.272 38.4503 110.25 50.4685 110.25 63Z" stroke="#FF7F11" stroke-width="9" stroke-linecap="round" stroke-linejoin="round"/>
</svg>
