<svg width="125" height="125" viewBox="0 0 125 125" fill="none" xmlns="http://www.w3.org/2000/svg">
<path d="M54.6875 64.8047L44.5703 54.6875L39.0625 60.1953L54.6875 75.8203L85.9375 44.5703L80.4297 39.0625L54.6875 64.8047Z" fill="#FF7F11"/>
<path d="M62.5 117.188L38.375 104.324C31.4974 100.665 25.746 95.2026 21.738 88.5223C17.73 81.8421 15.6167 74.1966 15.625 66.4062V15.625C15.6271 13.5536 16.4509 11.5677 17.9155 10.103C19.3802 8.63833 21.3662 7.81457 23.4375 7.8125H101.563C103.634 7.81457 105.62 8.63833 107.085 10.103C108.549 11.5677 109.373 13.5536 109.375 15.625V66.4062C109.383 74.1966 107.27 81.8421 103.262 88.5223C99.2541 95.2026 93.5026 100.665 86.625 104.324L62.5 117.188ZM23.4375 15.625V66.4062C23.431 72.7805 25.1606 79.0361 28.4405 84.5018C31.7204 89.9674 36.4269 94.4366 42.0547 97.4297L62.5 108.332L82.9453 97.4336C88.5737 94.4402 93.2806 89.9704 96.5605 84.504C99.8405 79.0376 101.57 72.7812 101.563 66.4062V15.625H23.4375Z" fill="#FF7F11"/>
</svg>
